# xmcd
#
# Track frame offsets:
#  150
#  10662
#  23937
#  42137
#  58887
#  80625
#  96387
#  112162
#  129637
#  144862
#  159937
#  172950
#
# Disc length: 2481 seconds
#
# Revision: 0
# Processed by: cddbd v1.4PL0 Copyright (c) Steve Scherf et al.
# Submitted via: AltoMP3_Maker 3.0
#
DISCID=9909af0c
DTITLE=The Untouchables - Killing Waters
DYEAR=1900
DGENRE=
TTITLE0=Little by little
TTITLE1=Country boy
TTITLE2=Ruby
TTITLE3=Killing water
TTITLE4=Dog jump
TTITLE5=Cheek to cheek
TTITLE6=Nightship
TTITLE7=Liza
TTITLE8=Walkin' walkin'
TTITLE9=Minnie the Moocher
TTITLE10=Buona Sera
TTITLE11=Man that's all
EXTD=
EXTT0=
EXTT1=
EXTT2=
EXTT3=
EXTT4=
EXTT5=
EXTT6=
EXTT7=
EXTT8=
EXTT9=
EXTT10=
EXTT11=
PLAYORDER=
